# xmcd CD database file
#
# Track frame offsets:
#	150
#	10385
#	22194
#	29999
#	43810
#	55330
#	67243
#	78532
#	91039
#	100274
#	110471
#	120590
#	132789
#	143707
#
# Disc length: 2064 seconds
#
# Revision: 1
# Processed by: cddbd v1.5.2PL0 Copyright (c) Steve Scherf et al.
# Submitted via: CDex 1.50beta10
#
DISCID=c8080e0e
DTITLE=Various Artist - The Best of Country, Disc 2
DYEAR=2006
DGENRE=Country
TTITLE0=Johnny Cash - Train of Love
TTITLE1=Faron Young - I Heard the Jukebox Playing
TTITLE2=Roger Miller - Do Wacha Do
TTITLE3=Glen Campbell - Rhinestone Cowboy
TTITLE4=George Jones - Window Up Above
TTITLE5=Webb Pierce - High Geared Daddy
TTITLE6=Carl Belew - Little Miss Heartache
TTITLE7=Red Sovine - A Wound Time Can't Erase
TTITLE8=The Maddox Brothers and Rose - Sally Let Your Bangs Hang Down
TTITLE9=Jan Howard - I Wish I Could Fall In Love Again
TTITLE10=The Dillards - Rueben's Train
TTITLE11=Johnny Horton - Done Roving
TTITLE12=Johnny Paycheck - Heartbreak Tennessee
TTITLE13=Patsy Cline - In Care of the Blues
EXTD=YEAR: 2006
EXTT0=
EXTT1=
EXTT2=
EXTT3=
EXTT4=
EXTT5=
EXTT6=
EXTT7=
EXTT8=
EXTT9=
EXTT10=
EXTT11=
EXTT12=
EXTT13=
PLAYORDER=
